<?xml version="1.0" encoding="UTF-8" standalone="no"?>
<!-- Created with Inkscape (http://www.inkscape.org/) -->

<svg
   width="512"
   height="512"
   viewBox="0 0 135.46666 135.46667"
   version="1.1"
   id="svg5"
   xmlns="http://www.w3.org/2000/svg"
   xmlns:svg="http://www.w3.org/2000/svg">
  <defs
     id="defs2">
    <marker
       style="overflow:visible"
       id="Arrow1Lstart"
       refX="0.0"
       refY="0.0"
       orient="auto">
      <path
         transform="scale(0.8) translate(12.5,0)"
         style="fill-rule:evenodd;fill:context-stroke;stroke:context-stroke;stroke-width:1.0pt"
         d="M 0.0,0.0 L 5.0,-5.0 L -12.5,0.0 L 5.0,5.0 L 0.0,0.0 z "
         id="path52242" />
    </marker>
  </defs>
  <g
     id="layer1">
    <ellipse
       style="fill:#000000;fill-opacity:0;stroke-width:0.264583"
       id="path24312"
       cx="106.144"
       cy="104.6669"
       rx="2.5910563"
       ry="22.559278" />
    <ellipse
       style="fill:#ffffff;fill-opacity:0;stroke-width:0.264583"
       id="path27190"
       cx="107.47574"
       cy="104.46295"
       rx="4.7627888"
       ry="23.130816" />
    <ellipse
       style="fill:#ffffff;fill-opacity:0;stroke-width:0.264583"
       id="path27470"
       cx="100.68274"
       cy="76.14959"
       rx="20.20903"
       ry="1.911185" />
    <path
       style="fill:#556080;fill-opacity:1;stroke-width:0.379767"
       d="m 103.27718,129.59119 c -6.12736,-1.38552 -10.74041,-4.03882 -15.03999,-8.65056 -3.14776,-3.37632 -5.08968,-6.99491 -6.28134,-11.70475 -0.66897,-2.64398 -0.77185,-3.88142 -0.59771,-7.18893 0.11882,-2.256508 0.0532,-4.27602 -0.15073,-4.640446 -0.1986,-0.35488 -1.43968,-1.248418 -2.75796,-1.985642 -2.82146,-1.577846 -3.54728,-2.306331 -4.24383,-4.25939 -0.5977,-1.675916 -0.728,-8.337618 -0.19072,-9.750785 0.19772,-0.520041 1.09492,-1.945695 1.99377,-3.16812 0.89886,-1.222428 2.30155,-3.911489 3.11709,-5.975689 1.29527,-3.278449 1.78445,-4.048866 3.86804,-6.091838 1.31189,-1.286306 2.52447,-2.83977 2.69463,-3.452135 0.17016,-0.61237 0.29971,-3.249581 0.28788,-5.860473 -0.0197,-4.354407 -0.10581,-4.91985 -1.04065,-6.835791 -0.97,-1.988005 -1.01968,-2.372537 -1.03037,-7.975089 -0.006,-3.237508 -0.18059,-7.082642 -0.38758,-8.54474 -1.35611,-9.579046 -9.54369,-14.845718 -22.96423,-14.771769 -11.665181,0.06427 -19.796573,5.447829 -21.457611,14.206458 -0.212522,1.120616 -0.342001,5.038693 -0.287732,8.706836 0.09409,6.359504 0.05831,6.737652 -0.770115,8.139446 -1.215887,2.057421 -1.783178,6.624474 -1.285489,10.349002 0.315453,2.360713 0.648756,3.280582 1.788089,4.934845 0.770202,1.118298 2.045922,3.811659 2.834936,5.985248 0.789014,2.173591 2.149584,5.004884 3.023487,6.291765 2.354273,3.466817 2.673011,4.476377 2.670619,8.458763 -0.0041,6.790142 -0.664694,7.577154 -11.066047,13.183365 -4.042772,2.179019 -8.461311,4.684049 -9.818976,5.566749 -3.846221,2.50065 -3.782703,2.50508 -6.888175,-0.48105 C 6.4281544,91.702662 -0.48638463,73.854259 1.0946624,57.09241 2.4796894,42.408694 8.1904354,29.565108 17.78389,19.557984 28.808287,8.0582135 43.045696,1.7804003 60.3636,0.78297675 86.06788,-0.69745962 112.12652,18.780363 119.75938,45.179019 c 2.30309,7.965348 2.76555,19.315883 1.04542,25.658471 -1.1706,4.316326 -1.36876,6.404518 -0.70403,7.419026 0.31223,0.47653 1.71848,1.539425 3.12499,2.36198 2.95035,1.725432 7.07107,5.934636 8.65012,8.835855 2.17017,3.987337 3.00188,7.119165 3.20262,12.059809 0.15582,3.83511 0.0553,5.10476 -0.61388,7.75091 -2.47809,9.7995 -9.80928,17.39349 -19.2248,19.91395 -3.33369,0.89241 -8.97867,1.0869 -11.96264,0.41217 z m 6.7879,-11.24271 c 0.9813,-1.0533 1.33828,-4.3144 0.99591,-9.0979 l -0.27042,-3.77807 h 6.03273 c 4.84545,0 6.19883,-0.11635 6.87675,-0.59118 1.05152,-0.73651 1.12323,-2.54753 0.13981,-3.53094 -0.94245,-0.94246 -4.50171,-1.31718 -9.28797,-0.97785 l -3.79012,0.2687 0.24497,-3.945449 c 0.44127,-7.107116 -0.58799,-10.260103 -3.14835,-9.644528 -1.76272,0.423804 -1.92285,1.043696 -1.92285,7.444121 v 5.967186 l -5.80707,-0.0584 c -4.98373,-0.0502 -5.95292,0.037 -6.83579,0.61489 -1.20985,0.79191 -1.40727,2.64622 -0.40021,3.75901 0.56005,0.61885 1.30458,0.69449 6.83579,0.69449 h 6.20728 v 6.07626 c 0,5.56991 0.0633,6.13956 0.75954,6.83579 0.98367,0.98368 2.43442,0.96815 3.37,-0.0361 z"
       id="path46472" />
    <path
       style="opacity:1;fill:#71c386;fill-opacity:1;stroke:#71c386;stroke-width:0.189883;stroke-opacity:1"
       d="m 104.89118,129.90075 c -4.40313,-0.63111 -9.074248,-2.61939 -12.731049,-5.41902 -1.699504,-1.30113 -4.861727,-4.55316 -6.040366,-6.21191 -2.648911,-3.72793 -4.399219,-8.8172 -4.622279,-13.43994 -0.396394,-8.214936 2.329185,-15.351617 8.013298,-20.982079 5.044604,-4.996993 11.713366,-7.723146 18.883916,-7.719635 3.22759,0.0016 5.71309,0.396643 8.6468,1.374379 2.55088,0.850145 3.14531,1.160475 6.23543,3.255271 4.10874,2.785319 7.39485,6.383094 9.23935,10.115659 1.97096,3.988408 2.5305,6.718109 2.54947,12.437345 0.0122,3.67952 -0.0161,4.00174 -0.51705,5.88637 -0.91604,3.44601 -2.19038,6.32501 -3.99233,9.01945 -4.02503,6.01857 -10.34847,10.22645 -17.12045,11.39265 -2.0452,0.35221 -6.95298,0.51961 -8.54474,0.29146 z m 4.85723,-11.07173 c 1.09644,-0.7389 1.36437,-1.7815 1.45049,-5.64428 0.0408,-1.82763 0.004,-4.27894 -0.082,-5.44736 l -0.15608,-2.1244 5.98462,-0.0593 c 6.69726,-0.0663 6.86376,-0.0964 7.47579,-1.34922 0.46649,-0.95493 0.28699,-1.90721 -0.50927,-2.70175 -0.47223,-0.47122 -0.88891,-0.65651 -1.93132,-0.85885 -1.52009,-0.29507 -5.37047,-0.34799 -8.8059,-0.12103 l -2.34988,0.15525 0.11282,-0.44949 c 0.062,-0.247221 0.16554,-2.196925 0.22998,-4.332673 0.17028,-5.643705 -0.28273,-7.771463 -1.8336,-8.612224 -0.60834,-0.32979 -0.74023,-0.338172 -1.4938,-0.09494 -1.68534,0.543978 -1.88333,1.44907 -1.89641,8.669113 l -0.008,4.604664 h -5.21244 c -5.184444,0 -6.6842,0.13676 -7.405187,0.67525 -0.352883,0.26357 -0.358381,0.354 -0.117753,1.9368 0.13883,0.91318 0.247396,1.79966 0.241263,1.96996 -0.01707,0.47403 0.832236,0.54044 6.940037,0.54274 l 5.55408,0.002 0.001,5.07937 c 10e-4,5.64966 0.14892,7.08618 0.8008,7.78831 0.8393,0.904 2.00732,1.04828 3.01097,0.37192 z"
       id="path61037" />
  </g>
</svg>
